# xmcd
#
# Track frame offsets: 
#        150
#        14305
#        28112
#        41822
#        55922
#        70682
#        84825
#        99095
#        111627
#        125357
#        140957
#        156240
#        170797
#        183180
#        196035
#        208675
#
# Disc length: 2967 seconds
#
# Revision: 0
# Processed by: cddbd v1.5.2PL0 Copyright (c) Steve Scherf et al.
# Submitted via: ExactAudioCopy v0.95b4
#
DISCID=de0b9510
DTITLE=Leroy Carr - Leroy Carr, 21 Blues Giants
DYEAR=1928
DGENRE=Blues
TTITLE0=How Long - How Long Blues
TTITLE1=Tennessee Blues
TTITLE2=Mean Old Train Blues
TTITLE3=Low Down Dirty Blues
TTITLE4=Baby, Don't You Love Me No More
TTITLE5=Prison Bound Blues
TTITLE6=Gambler's Blues
TTITLE7=Naptown Blues
TTITLE8=Love Hides All Faults
TTITLE9=Gettin' All WEt
TTITLE10=Rainey Day Blues
TTITLE11=Christma In Lail - ASin't That A Pain?
TTITLE12=Papa Wants A Cookie
TTITLE13=Alabama Women Blues
TTITLE14=Low Down Dog Blues
TTITLE15=Lonesome Night
EXTD=
EXTT0=
EXTT1=
EXTT2=
EXTT3=
EXTT4=
EXTT5=
EXTT6=
EXTT7=
EXTT8=
EXTT9=
EXTT10=
EXTT11=
EXTT12=
EXTT13=
EXTT14=
EXTT15=
PLAYORDER=
